<mxfile host="Electron" agent="Mozilla/5.0 (Macintosh; Intel Mac OS X 10_15_7) AppleWebKit/537.36 (KHTML, like Gecko) draw.io/24.7.17 Chrome/128.0.6613.36 Electron/32.0.1 Safari/537.36" version="24.7.17">
  <diagram name="Page-1" id="yx9NatM-q8bEOVtMpky8">
    <mxGraphModel dx="887" dy="2706" grid="1" gridSize="10" guides="1" tooltips="1" connect="1" arrows="1" fold="1" page="1" pageScale="1" pageWidth="827" pageHeight="1169" background="none" math="0" shadow="0">
      <root>
        <mxCell id="0" />
        <mxCell id="1" parent="0" />
        <mxCell id="3wbWXxaWbpRCuTf0ScIF-73" style="edgeStyle=orthogonalEdgeStyle;rounded=0;orthogonalLoop=1;jettySize=auto;html=1;exitX=0.5;exitY=1;exitDx=0;exitDy=0;entryX=0.5;entryY=0;entryDx=0;entryDy=0;" edge="1" parent="1" source="3wbWXxaWbpRCuTf0ScIF-2" target="3wbWXxaWbpRCuTf0ScIF-3">
          <mxGeometry relative="1" as="geometry" />
        </mxCell>
        <mxCell id="3wbWXxaWbpRCuTf0ScIF-2" value="" style="ellipse;whiteSpace=wrap;html=1;aspect=fixed;labelBackgroundColor=default;" vertex="1" parent="1">
          <mxGeometry x="1980" y="20" width="110" height="110" as="geometry" />
        </mxCell>
        <mxCell id="3wbWXxaWbpRCuTf0ScIF-1" value="" style="triangle;whiteSpace=wrap;html=1;direction=south;fillColor=#000000;fontColor=#333333;strokeColor=#666666;" vertex="1" parent="1">
          <mxGeometry x="2010" y="35" width="50" height="80" as="geometry" />
        </mxCell>
        <mxCell id="3wbWXxaWbpRCuTf0ScIF-94" style="rounded=0;orthogonalLoop=1;jettySize=auto;html=1;exitX=0.5;exitY=1;exitDx=0;exitDy=0;" edge="1" parent="1" source="3wbWXxaWbpRCuTf0ScIF-3">
          <mxGeometry relative="1" as="geometry">
            <mxPoint x="2590" y="430" as="targetPoint" />
          </mxGeometry>
        </mxCell>
        <mxCell id="3wbWXxaWbpRCuTf0ScIF-95" style="rounded=0;orthogonalLoop=1;jettySize=auto;html=1;exitX=0.5;exitY=1;exitDx=0;exitDy=0;" edge="1" parent="1" source="3wbWXxaWbpRCuTf0ScIF-3">
          <mxGeometry relative="1" as="geometry">
            <mxPoint x="2750" y="430" as="targetPoint" />
          </mxGeometry>
        </mxCell>
        <mxCell id="3wbWXxaWbpRCuTf0ScIF-98" style="rounded=0;orthogonalLoop=1;jettySize=auto;html=1;exitX=0.5;exitY=1;exitDx=0;exitDy=0;" edge="1" parent="1" source="3wbWXxaWbpRCuTf0ScIF-3">
          <mxGeometry relative="1" as="geometry">
            <mxPoint x="1620" y="430" as="targetPoint" />
          </mxGeometry>
        </mxCell>
        <mxCell id="3wbWXxaWbpRCuTf0ScIF-101" style="rounded=0;orthogonalLoop=1;jettySize=auto;html=1;exitX=0.5;exitY=1;exitDx=0;exitDy=0;" edge="1" parent="1" source="3wbWXxaWbpRCuTf0ScIF-3">
          <mxGeometry relative="1" as="geometry">
            <mxPoint x="1450" y="430" as="targetPoint" />
          </mxGeometry>
        </mxCell>
        <mxCell id="3wbWXxaWbpRCuTf0ScIF-102" style="rounded=0;orthogonalLoop=1;jettySize=auto;html=1;exitX=0.5;exitY=1;exitDx=0;exitDy=0;" edge="1" parent="1" source="3wbWXxaWbpRCuTf0ScIF-3">
          <mxGeometry relative="1" as="geometry">
            <mxPoint x="1300" y="430" as="targetPoint" />
          </mxGeometry>
        </mxCell>
        <mxCell id="3wbWXxaWbpRCuTf0ScIF-104" style="edgeStyle=orthogonalEdgeStyle;rounded=0;orthogonalLoop=1;jettySize=auto;html=1;exitX=0;exitY=0;exitDx=0;exitDy=0;endArrow=none;endFill=0;startArrow=classic;startFill=1;" edge="1" parent="1" source="3wbWXxaWbpRCuTf0ScIF-3">
          <mxGeometry relative="1" as="geometry">
            <mxPoint x="1280" y="430" as="targetPoint" />
            <Array as="points">
              <mxPoint x="1996" y="140" />
              <mxPoint x="1130" y="140" />
              <mxPoint x="1130" y="490" />
              <mxPoint x="1280" y="490" />
            </Array>
          </mxGeometry>
        </mxCell>
        <mxCell id="3wbWXxaWbpRCuTf0ScIF-108" style="edgeStyle=orthogonalEdgeStyle;rounded=0;orthogonalLoop=1;jettySize=auto;html=1;exitX=1;exitY=0;exitDx=0;exitDy=0;startArrow=classic;startFill=1;endArrow=none;endFill=0;" edge="1" parent="1" source="3wbWXxaWbpRCuTf0ScIF-3">
          <mxGeometry relative="1" as="geometry">
            <mxPoint x="2770" y="430" as="targetPoint" />
            <Array as="points">
              <mxPoint x="2074" y="140" />
              <mxPoint x="2930" y="140" />
              <mxPoint x="2930" y="490" />
              <mxPoint x="2770" y="490" />
            </Array>
          </mxGeometry>
        </mxCell>
        <mxCell id="3wbWXxaWbpRCuTf0ScIF-3" value="&lt;span style=&quot;font-size: 24px;&quot;&gt;s1&lt;/span&gt;" style="ellipse;whiteSpace=wrap;html=1;aspect=fixed;labelBackgroundColor=default;" vertex="1" parent="1">
          <mxGeometry x="1980" y="185" width="110" height="110" as="geometry" />
        </mxCell>
        <mxCell id="3wbWXxaWbpRCuTf0ScIF-4" value="" style="shape=waypoint;sketch=0;fillStyle=solid;size=6;pointerEvents=1;points=[];fillColor=none;resizable=0;rotatable=0;perimeter=centerPerimeter;snapToPoint=1;strokeWidth=4;" vertex="1" parent="1">
          <mxGeometry x="2025" y="200" width="20" height="20" as="geometry" />
        </mxCell>
        <mxCell id="3wbWXxaWbpRCuTf0ScIF-5" value="&lt;font style=&quot;font-size: 15px;&quot;&gt;Описание:&lt;/font&gt;&lt;div style=&quot;font-size: 15px;&quot;&gt;&lt;span style=&quot;background-color: initial;&quot;&gt;&lt;font style=&quot;font-size: 15px;&quot;&gt;&lt;span style=&quot;white-space: pre;&quot;&gt;&#x9;&lt;/span&gt;&lt;span style=&quot;white-space: pre;&quot;&gt;&#x9;&lt;/span&gt;&lt;span style=&quot;white-space: pre;&quot;&gt;&#x9;&lt;/span&gt;- состояния (states):&lt;br&gt;&lt;span style=&quot;white-space: pre;&quot;&gt;&#x9;&lt;/span&gt;&lt;span style=&quot;white-space: pre;&quot;&gt;&#x9;&lt;/span&gt;&lt;span style=&quot;white-space: pre;&quot;&gt;&#x9;&lt;/span&gt;&lt;span style=&quot;white-space: pre;&quot;&gt;&#x9;&lt;/span&gt;&lt;span style=&quot;white-space: pre;&quot;&gt;&#x9;&lt;/span&gt;s1 - начальная страница&lt;/font&gt;&lt;/span&gt;&lt;/div&gt;&lt;div style=&quot;font-size: 15px;&quot;&gt;&lt;span style=&quot;background-color: initial;&quot;&gt;&lt;font style=&quot;font-size: 15px;&quot;&gt;&lt;span style=&quot;white-space: pre;&quot;&gt;&#x9;&lt;/span&gt;&lt;span style=&quot;white-space: pre;&quot;&gt;&#x9;&lt;/span&gt;&lt;span style=&quot;white-space: pre;&quot;&gt;&#x9;&lt;/span&gt;- события (prompts):&lt;/font&gt;&lt;/span&gt;&lt;/div&gt;&lt;div style=&quot;font-size: 15px;&quot;&gt;&lt;span style=&quot;background-color: initial;&quot;&gt;&lt;font style=&quot;font-size: 15px;&quot;&gt;&lt;span style=&quot;white-space: pre;&quot;&gt;&#x9;&lt;/span&gt;&lt;span style=&quot;white-space: pre;&quot;&gt;&#x9;&lt;/span&gt;&lt;span style=&quot;white-space: pre;&quot;&gt;&#x9;&lt;/span&gt;&lt;span style=&quot;white-space: pre;&quot;&gt;&#x9;&lt;/span&gt;&lt;span style=&quot;white-space: pre;&quot;&gt;&#x9;&lt;span style=&quot;white-space: pre;&quot;&gt;&#x9;&lt;/span&gt;&lt;/span&gt;р1 - выбран первый чекбокс&lt;br&gt;&lt;span style=&quot;white-space: pre;&quot;&gt;&#x9;&lt;/span&gt;&lt;span style=&quot;white-space: pre;&quot;&gt;&#x9;&lt;/span&gt;&lt;span style=&quot;white-space: pre;&quot;&gt;&#x9;&lt;/span&gt;&lt;span style=&quot;white-space: pre;&quot;&gt;&#x9;&lt;/span&gt;&amp;nbsp; &amp;nbsp; &amp;nbsp;&lt;span style=&quot;white-space: pre;&quot;&gt;&#x9;&lt;/span&gt;&lt;span style=&quot;white-space: pre;&quot;&gt;&#x9;&lt;/span&gt;р2 - выбран второй чекбокс&lt;br&gt;&lt;span style=&quot;white-space: pre;&quot;&gt;&#x9;&lt;/span&gt;&lt;span style=&quot;white-space: pre;&quot;&gt;&#x9;&lt;/span&gt;&lt;span style=&quot;white-space: pre;&quot;&gt;&#x9;&lt;/span&gt;&lt;span style=&quot;white-space: pre;&quot;&gt;&#x9;&lt;/span&gt;&lt;span style=&quot;white-space: pre;&quot;&gt;&#x9;&lt;/span&gt;&amp;nbsp; &lt;span style=&quot;white-space: pre;&quot;&gt;&#x9;&lt;/span&gt;р3 - выбран третий чекбокс&lt;br&gt;&lt;span style=&quot;white-space: pre;&quot;&gt;&#x9;&lt;/span&gt;&lt;span style=&quot;white-space: pre;&quot;&gt;&#x9;&lt;/span&gt;&lt;span style=&quot;white-space: pre;&quot;&gt;&#x9;&lt;/span&gt;&lt;span style=&quot;white-space: pre;&quot;&gt;&#x9;&lt;/span&gt;&lt;span style=&quot;white-space: pre;&quot;&gt;&#x9;&lt;span style=&quot;white-space: pre;&quot;&gt;&#x9;&lt;/span&gt; &lt;/span&gt;&amp;nbsp; &amp;nbsp; &amp;nbsp; р4 - выбран четвертый чекбокс&lt;br&gt;&lt;span style=&quot;white-space: pre;&quot;&gt;&#x9;&lt;/span&gt;&lt;span style=&quot;white-space: pre;&quot;&gt;&#x9;&lt;/span&gt;&lt;span style=&quot;white-space: pre;&quot;&gt;&#x9;&lt;/span&gt;&lt;span style=&quot;white-space: pre;&quot;&gt;&#x9;&lt;span style=&quot;white-space: pre;&quot;&gt;&#x9;&lt;/span&gt;&lt;span style=&quot;white-space: pre;&quot;&gt;&#x9;&lt;/span&gt;&lt;/span&gt;р5 - выбран пятый чекбокс&lt;br&gt;&lt;/font&gt;&lt;/span&gt;&lt;/div&gt;&lt;div style=&quot;font-size: 15px;&quot;&gt;&lt;span style=&quot;background-color: initial;&quot;&gt;&lt;font style=&quot;font-size: 15px;&quot;&gt;&lt;br&gt;&lt;br&gt;&lt;/font&gt;&lt;/span&gt;&lt;div&gt;&lt;br&gt;&lt;/div&gt;&lt;/div&gt;" style="text;html=1;align=center;verticalAlign=middle;resizable=0;points=[];autosize=1;strokeColor=none;fillColor=none;" vertex="1" parent="1">
          <mxGeometry x="2460" y="-100" width="480" height="230" as="geometry" />
        </mxCell>
        <mxCell id="3wbWXxaWbpRCuTf0ScIF-8" value="&lt;span style=&quot;font-size: 24px;&quot;&gt;p1&lt;/span&gt;" style="ellipse;whiteSpace=wrap;html=1;aspect=fixed;labelBackgroundColor=default;" vertex="1" parent="1">
          <mxGeometry x="2150" y="185" width="110" height="110" as="geometry" />
        </mxCell>
        <mxCell id="3wbWXxaWbpRCuTf0ScIF-9" value="&lt;span style=&quot;font-size: 24px;&quot;&gt;p2&lt;/span&gt;" style="ellipse;whiteSpace=wrap;html=1;aspect=fixed;labelBackgroundColor=default;" vertex="1" parent="1">
          <mxGeometry x="2320" y="185" width="110" height="110" as="geometry" />
        </mxCell>
        <mxCell id="3wbWXxaWbpRCuTf0ScIF-10" value="&lt;span style=&quot;font-size: 24px;&quot;&gt;p3&lt;/span&gt;" style="ellipse;whiteSpace=wrap;html=1;aspect=fixed;labelBackgroundColor=default;" vertex="1" parent="1">
          <mxGeometry x="2481" y="185" width="110" height="110" as="geometry" />
        </mxCell>
        <mxCell id="3wbWXxaWbpRCuTf0ScIF-14" value="&lt;span style=&quot;font-size: 24px;&quot;&gt;p4&lt;/span&gt;" style="ellipse;whiteSpace=wrap;html=1;aspect=fixed;labelBackgroundColor=default;" vertex="1" parent="1">
          <mxGeometry x="1631" y="185" width="110" height="110" as="geometry" />
        </mxCell>
        <mxCell id="3wbWXxaWbpRCuTf0ScIF-15" value="&lt;span style=&quot;font-size: 24px;&quot;&gt;p5&lt;/span&gt;" style="ellipse;whiteSpace=wrap;html=1;aspect=fixed;labelBackgroundColor=default;" vertex="1" parent="1">
          <mxGeometry x="1801" y="185" width="110" height="110" as="geometry" />
        </mxCell>
        <mxCell id="3wbWXxaWbpRCuTf0ScIF-18" value="" style="endArrow=none;html=1;rounded=0;fontSize=29;fontStyle=0;spacing=4;strokeWidth=4;" edge="1" parent="1">
          <mxGeometry width="50" height="50" relative="1" as="geometry">
            <mxPoint x="1731" y="430" as="sourcePoint" />
            <mxPoint x="1801" y="430" as="targetPoint" />
          </mxGeometry>
        </mxCell>
        <mxCell id="3wbWXxaWbpRCuTf0ScIF-19" value="" style="endArrow=none;html=1;rounded=0;fontSize=29;fontStyle=0;spacing=4;strokeWidth=4;" edge="1" parent="1">
          <mxGeometry width="50" height="50" relative="1" as="geometry">
            <mxPoint x="1911" y="430" as="sourcePoint" />
            <mxPoint x="1981" y="430" as="targetPoint" />
          </mxGeometry>
        </mxCell>
        <mxCell id="3wbWXxaWbpRCuTf0ScIF-20" value="" style="endArrow=none;html=1;rounded=0;fontSize=29;fontStyle=0;spacing=4;strokeWidth=4;" edge="1" parent="1">
          <mxGeometry width="50" height="50" relative="1" as="geometry">
            <mxPoint x="2090" y="430" as="sourcePoint" />
            <mxPoint x="2160" y="430" as="targetPoint" />
          </mxGeometry>
        </mxCell>
        <mxCell id="3wbWXxaWbpRCuTf0ScIF-21" value="" style="endArrow=none;html=1;rounded=0;fontSize=29;fontStyle=0;spacing=4;strokeWidth=4;" edge="1" parent="1">
          <mxGeometry width="50" height="50" relative="1" as="geometry">
            <mxPoint x="2250" y="430" as="sourcePoint" />
            <mxPoint x="2320" y="430" as="targetPoint" />
          </mxGeometry>
        </mxCell>
        <mxCell id="3wbWXxaWbpRCuTf0ScIF-22" value="" style="endArrow=none;html=1;rounded=0;fontSize=29;fontStyle=0;spacing=4;strokeWidth=4;" edge="1" parent="1">
          <mxGeometry width="50" height="50" relative="1" as="geometry">
            <mxPoint x="2420" y="430" as="sourcePoint" />
            <mxPoint x="2490" y="430" as="targetPoint" />
          </mxGeometry>
        </mxCell>
        <mxCell id="3wbWXxaWbpRCuTf0ScIF-25" value="" style="endArrow=classic;html=1;rounded=0;exitX=0.5;exitY=1;exitDx=0;exitDy=0;" edge="1" parent="1" source="3wbWXxaWbpRCuTf0ScIF-3">
          <mxGeometry width="50" height="50" relative="1" as="geometry">
            <mxPoint x="2340" y="220" as="sourcePoint" />
            <mxPoint x="2450" y="430" as="targetPoint" />
          </mxGeometry>
        </mxCell>
        <mxCell id="3wbWXxaWbpRCuTf0ScIF-26" value="" style="endArrow=classic;html=1;rounded=0;exitX=0.5;exitY=1;exitDx=0;exitDy=0;" edge="1" parent="1" source="3wbWXxaWbpRCuTf0ScIF-3">
          <mxGeometry width="50" height="50" relative="1" as="geometry">
            <mxPoint x="2340" y="220" as="sourcePoint" />
            <mxPoint x="2270" y="430" as="targetPoint" />
          </mxGeometry>
        </mxCell>
        <mxCell id="3wbWXxaWbpRCuTf0ScIF-27" value="" style="endArrow=classic;html=1;rounded=0;exitX=0.5;exitY=1;exitDx=0;exitDy=0;" edge="1" parent="1" source="3wbWXxaWbpRCuTf0ScIF-3">
          <mxGeometry width="50" height="50" relative="1" as="geometry">
            <mxPoint x="2340" y="220" as="sourcePoint" />
            <mxPoint x="2110" y="430" as="targetPoint" />
          </mxGeometry>
        </mxCell>
        <mxCell id="3wbWXxaWbpRCuTf0ScIF-28" value="" style="endArrow=classic;html=1;rounded=0;exitX=0.5;exitY=1;exitDx=0;exitDy=0;" edge="1" parent="1" source="3wbWXxaWbpRCuTf0ScIF-8">
          <mxGeometry width="50" height="50" relative="1" as="geometry">
            <mxPoint x="2230" y="380" as="sourcePoint" />
            <mxPoint x="2130" y="430" as="targetPoint" />
          </mxGeometry>
        </mxCell>
        <mxCell id="3wbWXxaWbpRCuTf0ScIF-29" value="" style="endArrow=classic;html=1;rounded=0;exitX=0.5;exitY=1;exitDx=0;exitDy=0;" edge="1" parent="1" source="3wbWXxaWbpRCuTf0ScIF-9">
          <mxGeometry width="50" height="50" relative="1" as="geometry">
            <mxPoint x="2230" y="380" as="sourcePoint" />
            <mxPoint x="2290" y="430" as="targetPoint" />
          </mxGeometry>
        </mxCell>
        <mxCell id="3wbWXxaWbpRCuTf0ScIF-30" value="" style="endArrow=classic;html=1;rounded=0;exitX=0.5;exitY=1;exitDx=0;exitDy=0;" edge="1" parent="1" source="3wbWXxaWbpRCuTf0ScIF-10">
          <mxGeometry width="50" height="50" relative="1" as="geometry">
            <mxPoint x="2230" y="380" as="sourcePoint" />
            <mxPoint x="2470" y="430" as="targetPoint" />
          </mxGeometry>
        </mxCell>
        <mxCell id="3wbWXxaWbpRCuTf0ScIF-32" value="" style="endArrow=classic;html=1;rounded=0;exitX=0.5;exitY=1;exitDx=0;exitDy=0;" edge="1" parent="1" source="3wbWXxaWbpRCuTf0ScIF-3">
          <mxGeometry width="50" height="50" relative="1" as="geometry">
            <mxPoint x="2010" y="380" as="sourcePoint" />
            <mxPoint x="1960" y="430" as="targetPoint" />
          </mxGeometry>
        </mxCell>
        <mxCell id="3wbWXxaWbpRCuTf0ScIF-35" value="" style="endArrow=classic;html=1;rounded=0;exitX=0.5;exitY=1;exitDx=0;exitDy=0;" edge="1" parent="1" source="3wbWXxaWbpRCuTf0ScIF-3">
          <mxGeometry width="50" height="50" relative="1" as="geometry">
            <mxPoint x="2010" y="380" as="sourcePoint" />
            <mxPoint x="1770" y="430" as="targetPoint" />
          </mxGeometry>
        </mxCell>
        <mxCell id="3wbWXxaWbpRCuTf0ScIF-40" value="" style="endArrow=classic;html=1;rounded=0;exitX=0.5;exitY=1;exitDx=0;exitDy=0;" edge="1" parent="1" source="3wbWXxaWbpRCuTf0ScIF-14">
          <mxGeometry width="50" height="50" relative="1" as="geometry">
            <mxPoint x="1890" y="380" as="sourcePoint" />
            <mxPoint x="1750" y="430" as="targetPoint" />
          </mxGeometry>
        </mxCell>
        <mxCell id="3wbWXxaWbpRCuTf0ScIF-42" value="" style="endArrow=classic;html=1;rounded=0;exitX=0.5;exitY=1;exitDx=0;exitDy=0;" edge="1" parent="1" source="3wbWXxaWbpRCuTf0ScIF-15">
          <mxGeometry width="50" height="50" relative="1" as="geometry">
            <mxPoint x="2210" y="380" as="sourcePoint" />
            <mxPoint x="1930" y="430" as="targetPoint" />
          </mxGeometry>
        </mxCell>
        <mxCell id="3wbWXxaWbpRCuTf0ScIF-51" value="" style="endArrow=none;html=1;rounded=0;" edge="1" parent="1">
          <mxGeometry width="50" height="50" relative="1" as="geometry">
            <mxPoint x="1950" y="430" as="sourcePoint" />
            <mxPoint x="1750" y="490" as="targetPoint" />
            <Array as="points">
              <mxPoint x="1950" y="490" />
            </Array>
          </mxGeometry>
        </mxCell>
        <mxCell id="3wbWXxaWbpRCuTf0ScIF-54" value="" style="endArrow=none;html=1;rounded=0;" edge="1" parent="1">
          <mxGeometry width="50" height="50" relative="1" as="geometry">
            <mxPoint x="2460" y="490" as="sourcePoint" />
            <mxPoint x="2280" y="430" as="targetPoint" />
            <Array as="points">
              <mxPoint x="2280" y="490" />
            </Array>
          </mxGeometry>
        </mxCell>
        <mxCell id="3wbWXxaWbpRCuTf0ScIF-55" value="" style="endArrow=none;html=1;rounded=0;" edge="1" parent="1">
          <mxGeometry width="50" height="50" relative="1" as="geometry">
            <mxPoint x="2120" y="430" as="sourcePoint" />
            <mxPoint x="2280" y="490" as="targetPoint" />
            <Array as="points">
              <mxPoint x="2120" y="490" />
            </Array>
          </mxGeometry>
        </mxCell>
        <mxCell id="3wbWXxaWbpRCuTf0ScIF-56" value="" style="shape=waypoint;sketch=0;fillStyle=solid;size=6;pointerEvents=1;points=[];fillColor=none;resizable=0;rotatable=0;perimeter=centerPerimeter;snapToPoint=1;strokeWidth=4;" vertex="1" parent="1">
          <mxGeometry x="1950" y="115" width="20" height="20" as="geometry" />
        </mxCell>
        <mxCell id="3wbWXxaWbpRCuTf0ScIF-57" value="" style="shape=waypoint;sketch=0;fillStyle=solid;size=6;pointerEvents=1;points=[];fillColor=none;resizable=0;rotatable=0;perimeter=centerPerimeter;snapToPoint=1;strokeWidth=4;" vertex="1" parent="1">
          <mxGeometry x="1970" y="115" width="20" height="20" as="geometry" />
        </mxCell>
        <mxCell id="3wbWXxaWbpRCuTf0ScIF-58" value="Легенда:" style="text;html=1;align=center;verticalAlign=middle;resizable=0;points=[];autosize=1;strokeColor=none;fillColor=none;" vertex="1" parent="1">
          <mxGeometry x="1120" y="-72.5" width="70" height="30" as="geometry" />
        </mxCell>
        <mxCell id="3wbWXxaWbpRCuTf0ScIF-59" value="" style="triangle;whiteSpace=wrap;html=1;direction=south;fillColor=#191919;fontColor=#333333;strokeColor=#666666;" vertex="1" parent="1">
          <mxGeometry x="1140" y="-32.5" width="10" height="15" as="geometry" />
        </mxCell>
        <mxCell id="3wbWXxaWbpRCuTf0ScIF-60" value="начало процесса" style="text;html=1;align=center;verticalAlign=middle;resizable=0;points=[];autosize=1;strokeColor=none;fillColor=none;" vertex="1" parent="1">
          <mxGeometry x="1170" y="-40" width="120" height="30" as="geometry" />
        </mxCell>
        <mxCell id="3wbWXxaWbpRCuTf0ScIF-63" value="" style="shape=waypoint;sketch=0;fillStyle=solid;size=6;pointerEvents=1;points=[];fillColor=none;resizable=0;rotatable=0;perimeter=centerPerimeter;snapToPoint=1;strokeWidth=4;" vertex="1" parent="1">
          <mxGeometry x="1135" y="-5" width="20" height="20" as="geometry" />
        </mxCell>
        <mxCell id="3wbWXxaWbpRCuTf0ScIF-64" value="устойчивое состояние" style="text;html=1;align=center;verticalAlign=middle;resizable=0;points=[];autosize=1;strokeColor=none;fillColor=none;" vertex="1" parent="1">
          <mxGeometry x="1170" y="-10" width="150" height="30" as="geometry" />
        </mxCell>
        <mxCell id="3wbWXxaWbpRCuTf0ScIF-65" value="" style="shape=waypoint;sketch=0;fillStyle=solid;size=6;pointerEvents=1;points=[];fillColor=none;resizable=0;rotatable=0;perimeter=centerPerimeter;snapToPoint=1;strokeWidth=4;" vertex="1" parent="1">
          <mxGeometry x="1350" y="-37.5" width="20" height="20" as="geometry" />
        </mxCell>
        <mxCell id="3wbWXxaWbpRCuTf0ScIF-66" value="" style="shape=waypoint;sketch=0;fillStyle=solid;size=6;pointerEvents=1;points=[];fillColor=none;resizable=0;rotatable=0;perimeter=centerPerimeter;snapToPoint=1;strokeWidth=4;" vertex="1" parent="1">
          <mxGeometry x="1370" y="-37.5" width="20" height="20" as="geometry" />
        </mxCell>
        <mxCell id="3wbWXxaWbpRCuTf0ScIF-67" value="измененное состояние" style="text;html=1;align=center;verticalAlign=middle;resizable=0;points=[];autosize=1;strokeColor=none;fillColor=none;" vertex="1" parent="1">
          <mxGeometry x="1400" y="-42.5" width="150" height="30" as="geometry" />
        </mxCell>
        <mxCell id="3wbWXxaWbpRCuTf0ScIF-76" value="" style="shape=waypoint;sketch=0;fillStyle=solid;size=6;pointerEvents=1;points=[];fillColor=none;resizable=0;rotatable=0;perimeter=centerPerimeter;snapToPoint=1;strokeWidth=4;" vertex="1" parent="1">
          <mxGeometry x="2080" y="115" width="20" height="20" as="geometry" />
        </mxCell>
        <mxCell id="3wbWXxaWbpRCuTf0ScIF-77" value="" style="shape=waypoint;sketch=0;fillStyle=solid;size=6;pointerEvents=1;points=[];fillColor=none;resizable=0;rotatable=0;perimeter=centerPerimeter;snapToPoint=1;strokeWidth=4;" vertex="1" parent="1">
          <mxGeometry x="2100" y="115" width="20" height="20" as="geometry" />
        </mxCell>
        <mxCell id="3wbWXxaWbpRCuTf0ScIF-96" style="rounded=0;orthogonalLoop=1;jettySize=auto;html=1;exitX=0.5;exitY=1;exitDx=0;exitDy=0;" edge="1" parent="1" source="3wbWXxaWbpRCuTf0ScIF-78">
          <mxGeometry relative="1" as="geometry">
            <mxPoint x="2610" y="430" as="targetPoint" />
          </mxGeometry>
        </mxCell>
        <mxCell id="3wbWXxaWbpRCuTf0ScIF-78" value="&lt;span style=&quot;font-size: 24px;&quot;&gt;p4&lt;/span&gt;" style="ellipse;whiteSpace=wrap;html=1;aspect=fixed;labelBackgroundColor=default;" vertex="1" parent="1">
          <mxGeometry x="2630" y="185" width="110" height="110" as="geometry" />
        </mxCell>
        <mxCell id="3wbWXxaWbpRCuTf0ScIF-97" style="rounded=0;orthogonalLoop=1;jettySize=auto;html=1;exitX=0.5;exitY=1;exitDx=0;exitDy=0;" edge="1" parent="1" source="3wbWXxaWbpRCuTf0ScIF-79">
          <mxGeometry relative="1" as="geometry">
            <mxPoint x="2780" y="430" as="targetPoint" />
          </mxGeometry>
        </mxCell>
        <mxCell id="3wbWXxaWbpRCuTf0ScIF-79" value="&lt;span style=&quot;font-size: 24px;&quot;&gt;p5&lt;/span&gt;" style="ellipse;whiteSpace=wrap;html=1;aspect=fixed;labelBackgroundColor=default;" vertex="1" parent="1">
          <mxGeometry x="2800" y="185" width="110" height="110" as="geometry" />
        </mxCell>
        <mxCell id="3wbWXxaWbpRCuTf0ScIF-80" value="" style="endArrow=none;html=1;rounded=0;fontSize=29;fontStyle=0;spacing=4;strokeWidth=4;" edge="1" parent="1">
          <mxGeometry width="50" height="50" relative="1" as="geometry">
            <mxPoint x="2570" y="430" as="sourcePoint" />
            <mxPoint x="2640" y="430" as="targetPoint" />
          </mxGeometry>
        </mxCell>
        <mxCell id="3wbWXxaWbpRCuTf0ScIF-81" value="" style="endArrow=none;html=1;rounded=0;fontSize=29;fontStyle=0;spacing=4;strokeWidth=4;" edge="1" parent="1">
          <mxGeometry width="50" height="50" relative="1" as="geometry">
            <mxPoint x="2730" y="430" as="sourcePoint" />
            <mxPoint x="2800" y="430" as="targetPoint" />
          </mxGeometry>
        </mxCell>
        <mxCell id="3wbWXxaWbpRCuTf0ScIF-103" style="rounded=0;orthogonalLoop=1;jettySize=auto;html=1;exitX=0.5;exitY=1;exitDx=0;exitDy=0;" edge="1" parent="1" source="3wbWXxaWbpRCuTf0ScIF-82">
          <mxGeometry relative="1" as="geometry">
            <mxPoint x="1270" y="430" as="targetPoint" />
          </mxGeometry>
        </mxCell>
        <mxCell id="3wbWXxaWbpRCuTf0ScIF-82" value="&lt;span style=&quot;font-size: 24px;&quot;&gt;p1&lt;/span&gt;" style="ellipse;whiteSpace=wrap;html=1;aspect=fixed;labelBackgroundColor=default;" vertex="1" parent="1">
          <mxGeometry x="1140" y="185" width="110" height="110" as="geometry" />
        </mxCell>
        <mxCell id="3wbWXxaWbpRCuTf0ScIF-100" style="rounded=0;orthogonalLoop=1;jettySize=auto;html=1;exitX=0.5;exitY=1;exitDx=0;exitDy=0;" edge="1" parent="1" source="3wbWXxaWbpRCuTf0ScIF-83">
          <mxGeometry relative="1" as="geometry">
            <mxPoint x="1430" y="430" as="targetPoint" />
          </mxGeometry>
        </mxCell>
        <mxCell id="3wbWXxaWbpRCuTf0ScIF-83" value="&lt;span style=&quot;font-size: 24px;&quot;&gt;p2&lt;/span&gt;" style="ellipse;whiteSpace=wrap;html=1;aspect=fixed;labelBackgroundColor=default;" vertex="1" parent="1">
          <mxGeometry x="1310" y="185" width="110" height="110" as="geometry" />
        </mxCell>
        <mxCell id="3wbWXxaWbpRCuTf0ScIF-99" style="rounded=0;orthogonalLoop=1;jettySize=auto;html=1;exitX=0.5;exitY=1;exitDx=0;exitDy=0;" edge="1" parent="1" source="3wbWXxaWbpRCuTf0ScIF-84">
          <mxGeometry relative="1" as="geometry">
            <mxPoint x="1590" y="430" as="targetPoint" />
          </mxGeometry>
        </mxCell>
        <mxCell id="3wbWXxaWbpRCuTf0ScIF-84" value="&lt;span style=&quot;font-size: 24px;&quot;&gt;p3&lt;/span&gt;" style="ellipse;whiteSpace=wrap;html=1;aspect=fixed;labelBackgroundColor=default;" vertex="1" parent="1">
          <mxGeometry x="1471" y="185" width="110" height="110" as="geometry" />
        </mxCell>
        <mxCell id="3wbWXxaWbpRCuTf0ScIF-85" value="" style="endArrow=none;html=1;rounded=0;fontSize=29;fontStyle=0;spacing=4;strokeWidth=4;" edge="1" parent="1">
          <mxGeometry width="50" height="50" relative="1" as="geometry">
            <mxPoint x="1170" y="220" as="sourcePoint" />
            <mxPoint x="1220" y="220" as="targetPoint" />
          </mxGeometry>
        </mxCell>
        <mxCell id="3wbWXxaWbpRCuTf0ScIF-86" value="" style="endArrow=none;html=1;rounded=0;fontSize=29;fontStyle=0;spacing=4;strokeWidth=4;" edge="1" parent="1">
          <mxGeometry width="50" height="50" relative="1" as="geometry">
            <mxPoint x="1335" y="220" as="sourcePoint" />
            <mxPoint x="1395" y="220" as="targetPoint" />
          </mxGeometry>
        </mxCell>
        <mxCell id="3wbWXxaWbpRCuTf0ScIF-88" value="" style="endArrow=none;html=1;rounded=0;fontSize=29;fontStyle=0;spacing=4;strokeWidth=4;" edge="1" parent="1">
          <mxGeometry width="50" height="50" relative="1" as="geometry">
            <mxPoint x="1495" y="220" as="sourcePoint" />
            <mxPoint x="1555" y="220" as="targetPoint" />
          </mxGeometry>
        </mxCell>
        <mxCell id="3wbWXxaWbpRCuTf0ScIF-89" value="" style="endArrow=none;html=1;rounded=0;fontSize=29;fontStyle=0;spacing=4;strokeWidth=4;" edge="1" parent="1">
          <mxGeometry width="50" height="50" relative="1" as="geometry">
            <mxPoint x="1650" y="220" as="sourcePoint" />
            <mxPoint x="1710" y="220" as="targetPoint" />
          </mxGeometry>
        </mxCell>
        <mxCell id="3wbWXxaWbpRCuTf0ScIF-90" value="" style="endArrow=none;html=1;rounded=0;fontSize=29;fontStyle=0;spacing=4;strokeWidth=4;" edge="1" parent="1">
          <mxGeometry width="50" height="50" relative="1" as="geometry">
            <mxPoint x="1826" y="220" as="sourcePoint" />
            <mxPoint x="1886" y="220" as="targetPoint" />
          </mxGeometry>
        </mxCell>
        <mxCell id="3wbWXxaWbpRCuTf0ScIF-91" value="" style="endArrow=none;html=1;rounded=0;fontSize=29;fontStyle=0;spacing=4;strokeWidth=4;" edge="1" parent="1">
          <mxGeometry width="50" height="50" relative="1" as="geometry">
            <mxPoint x="1570" y="430" as="sourcePoint" />
            <mxPoint x="1640" y="430" as="targetPoint" />
          </mxGeometry>
        </mxCell>
        <mxCell id="3wbWXxaWbpRCuTf0ScIF-92" value="" style="endArrow=none;html=1;rounded=0;fontSize=29;fontStyle=0;spacing=4;strokeWidth=4;" edge="1" parent="1">
          <mxGeometry width="50" height="50" relative="1" as="geometry">
            <mxPoint x="1410" y="430" as="sourcePoint" />
            <mxPoint x="1480" y="430" as="targetPoint" />
          </mxGeometry>
        </mxCell>
        <mxCell id="3wbWXxaWbpRCuTf0ScIF-93" value="" style="endArrow=none;html=1;rounded=0;fontSize=29;fontStyle=0;spacing=4;strokeWidth=4;" edge="1" parent="1">
          <mxGeometry width="50" height="50" relative="1" as="geometry">
            <mxPoint x="1250" y="430" as="sourcePoint" />
            <mxPoint x="1320" y="430" as="targetPoint" />
          </mxGeometry>
        </mxCell>
        <mxCell id="3wbWXxaWbpRCuTf0ScIF-105" value="" style="endArrow=none;html=1;rounded=0;" edge="1" parent="1">
          <mxGeometry width="50" height="50" relative="1" as="geometry">
            <mxPoint x="1440" y="430" as="sourcePoint" />
            <mxPoint x="1280" y="490" as="targetPoint" />
            <Array as="points">
              <mxPoint x="1440" y="490" />
            </Array>
          </mxGeometry>
        </mxCell>
        <mxCell id="3wbWXxaWbpRCuTf0ScIF-106" value="" style="endArrow=none;html=1;rounded=0;" edge="1" parent="1">
          <mxGeometry width="50" height="50" relative="1" as="geometry">
            <mxPoint x="1610" y="430" as="sourcePoint" />
            <mxPoint x="1440" y="490" as="targetPoint" />
            <Array as="points">
              <mxPoint x="1610" y="490" />
            </Array>
          </mxGeometry>
        </mxCell>
        <mxCell id="3wbWXxaWbpRCuTf0ScIF-107" value="" style="endArrow=none;html=1;rounded=0;" edge="1" parent="1">
          <mxGeometry width="50" height="50" relative="1" as="geometry">
            <mxPoint x="1770" y="430" as="sourcePoint" />
            <mxPoint x="1610" y="490" as="targetPoint" />
            <Array as="points">
              <mxPoint x="1770" y="490" />
            </Array>
          </mxGeometry>
        </mxCell>
        <mxCell id="3wbWXxaWbpRCuTf0ScIF-109" value="" style="endArrow=none;html=1;rounded=0;" edge="1" parent="1">
          <mxGeometry width="50" height="50" relative="1" as="geometry">
            <mxPoint x="2460" y="430" as="sourcePoint" />
            <mxPoint x="2770" y="490" as="targetPoint" />
            <Array as="points">
              <mxPoint x="2460" y="490" />
            </Array>
          </mxGeometry>
        </mxCell>
        <mxCell id="3wbWXxaWbpRCuTf0ScIF-110" value="" style="endArrow=none;html=1;rounded=0;" edge="1" parent="1">
          <mxGeometry width="50" height="50" relative="1" as="geometry">
            <mxPoint x="2600" y="430" as="sourcePoint" />
            <mxPoint x="2600" y="490" as="targetPoint" />
          </mxGeometry>
        </mxCell>
      </root>
    </mxGraphModel>
  </diagram>
</mxfile>
